<svg width="615" height="479" viewBox="0 0 615 479" fill="none" xmlns="http://www.w3.org/2000/svg">
<path d="M243.001 242.33V224.71H461.721V228.13C433.721 237.25 392.261 245.85 381.621 247.51C387.421 250.21 389.311 252.59 391.781 253.4C400.343 254.433 408.832 255.996 417.201 258.08C433.671 261.87 447.311 265.46 458.531 269.42C470.191 273.78 476.361 275.79 483.231 277.77C491.255 279.957 499.386 281.736 507.591 283.1C514.361 284.1 528.751 279.1 532.131 278.23C535.511 277.36 579.281 260.35 579.281 260.35C579.281 260.35 598.281 253.24 605.801 251.35C612.711 249.44 612.891 251.75 612.891 251.75C613.519 253.752 614.013 255.793 614.371 257.86C615.068 264.369 615.128 270.93 614.551 277.45C613.805 282.474 612.804 287.458 611.551 292.38C610.42 296.445 608.896 300.39 607.001 304.16C605.601 306.61 603.441 310.43 602.701 312.09C601.556 314.375 600.818 316.842 600.521 319.38C600.177 322.815 600.342 326.283 601.011 329.67C601.611 332.57 603.551 339.84 603.551 339.84L605.841 348.93L292.381 348.55V366.93H38.5307C38.6698 366.507 38.6939 366.055 38.6007 365.62C38.3407 364.5 37.0607 362.85 32.1607 359.9C25.8507 355.79 5.93071 348.58 0.16071 346.47C-0.0692897 341 -2.43929 315.8 29.0007 288.15C38.4135 280.106 48.3195 272.659 58.6607 265.85C58.6607 265.85 85.6607 248.19 107.121 241.14" fill="#0C8C5E"/>
<path d="M605.79 348.93L292.33 348.55V366.93H38.5303C37.1203 371.07 18.0703 378.39 5.03027 380.93C12.0303 390.56 25.2503 399.35 38.5203 406.93C51.3095 413.91 64.5837 419.962 78.2403 425.04C83.2403 426.77 98.1403 432.6 107.02 433.3C119.376 434.181 131.786 433.947 144.1 432.6C150.608 431.966 157.075 430.965 163.47 429.6C163.47 429.6 164.71 434.5 172.47 445.26C178.08 452.71 184.96 460.33 191.83 464.84C200.01 470.01 202.73 472.74 220.45 475.97C233.628 478.481 247.096 479.107 260.45 477.83C269.45 477 278.17 476.71 285.92 474.56C286.29 464.62 285.04 455.44 281.04 447.33C291.8 447.76 297.78 448.07 312.8 447.78C341.8 447.23 373.47 441.26 399.43 436.3C420.88 432.21 455.97 422.38 472.75 416.8C482.39 413.59 505.31 405.8 507.44 405.8C510.89 405.8 516.07 406.61 523.28 408.74C533.99 411.91 542.22 414.74 560.28 421.23C578.34 427.72 594.41 433.38 604.19 434.72C611.42 435.72 612.31 434.72 612.81 431.1C613.64 426.52 607.26 416.1 604.63 407.92C601.334 399.655 600.674 390.574 602.74 381.92C603.419 379.376 604.24 376.872 605.2 374.42C606.942 369.429 607.703 364.149 607.44 358.87C607.24 355.508 606.687 352.176 605.79 348.93Z" fill="#0C8C5E"/>
<path d="M601.701 198.75C601.599 195.306 602.038 191.868 603.001 188.56C603.621 186.56 604.261 184.78 605.441 181.41C607.128 176.28 607.771 170.863 607.331 165.48C606.993 162.289 606.469 159.12 605.761 155.99L375.881 155.6V173.5H38.6806C39.3606 178.41 18.1806 186.26 5.14062 188.84C11.9406 198.18 25.6906 207.39 39.0006 215C51.8196 221.962 65.1124 228.014 78.7806 233.11C84.7806 235.23 97.9006 240.11 107.181 241.18L243.001 242.33V224.71H461.721V228.13C465.021 227.21 469.921 225.75 473.071 224.71C482.711 221.5 506.011 213.48 508.141 213.45C511.601 213.45 516.011 214.21 523.221 216.34C533.931 219.5 542.451 222.67 560.531 229.12C578.611 235.57 594.301 241.12 604.061 242.56C612.451 243.81 612.951 241 612.951 237.65C613.151 233.38 606.831 222.59 604.191 214.37C602.548 209.326 601.707 204.055 601.701 198.75Z" fill="#18E299"/>
<path d="M614.37 65.91C614.55 69.17 615.05 82.47 614.55 85.49C613.898 90.1063 612.963 94.6782 611.75 99.18C610.45 103.28 608.47 109.18 606.95 111.86C605.55 114.31 603.27 118.09 602.53 119.75C601.434 122.185 600.738 124.782 600.47 127.44C600.127 130.875 600.292 134.343 600.96 137.73C601.56 140.63 603.5 147.9 603.5 147.9L605.76 155.99L375.88 155.6V173.5H38.6804C38.6804 173.5 38.9804 171.5 32.8804 167.7C27.3804 164.7 9.48039 157.1 0.380386 154.3C-0.499614 149.73 -2.43962 123.85 29.0004 96.21C38.4168 88.1592 48.3296 80.7078 58.6804 73.9C58.6804 73.9 84.7604 55.39 112.78 47.1C119.534 45.1942 126.42 43.7904 133.38 42.9C153.25 41.28 185.1 40.5 188.22 40.61C194.469 32.2919 201.271 24.404 208.58 17C220.45 5.31 227.18 0.8 234.28 0C244.08 0.58 296.54 12.84 311.35 17.25C319.85 19.65 336.87 24.25 350.35 29.9C364.25 35.24 367.63 39.78 367.63 39.78C370.234 43.7138 373.058 47.4966 376.09 51.11C379.37 54.39 388.79 60.05 391.41 61.11C395.36 62.11 402.04 62.17 417.16 65.82C432.96 69.58 447.16 73.6 458.46 77.12C470.16 81.02 476.26 83.72 483.26 85.52C490.26 87.32 501.46 90.02 507.66 90.92C513.86 91.82 527.49 86.92 530.87 86.05C534.25 85.18 579.28 68.4 579.28 68.4C579.28 68.4 603.58 59.71 605.78 59C613.15 56.6 614.37 56.43 614.37 65.91Z" fill="#18E299"/>
<path d="M107.001 93.51C91.1009 93.51 79.1009 105.71 78.3009 123.01C77.5009 140.11 91.2009 152.51 107.001 152.51C122.801 152.51 135.701 139.31 135.701 123.01C135.701 106.71 122.911 93.51 107.001 93.51ZM100.301 146.31C88.1009 146.31 78.2009 137.61 78.3009 123.61C78.7009 112.11 88.2009 100.91 100.301 100.91C112.401 100.91 122.301 111.01 122.301 123.61C122.301 136.21 112.511 146.31 100.311 146.31H100.301Z" fill="white"/>
<path d="M100.311 101C88.1105 101 78.6105 112.2 78.3105 123.7C78.3105 137.7 88.2105 146.4 100.311 146.4C112.411 146.4 122.311 136.3 122.311 123.7C122.311 111.1 112.511 101 100.311 101ZM89.9106 138.8C88.4391 138.84 86.9892 138.44 85.7463 137.651C84.5033 136.863 83.5238 135.721 82.9329 134.373C82.342 133.025 82.1667 131.531 82.4292 130.083C82.6917 128.634 83.3803 127.297 84.4068 126.242C85.4333 125.187 86.7511 124.462 88.1917 124.16C89.6324 123.858 91.1304 123.993 92.4943 124.546C93.8581 125.1 95.0259 126.048 95.8482 127.269C96.6705 128.49 97.11 129.928 97.1105 131.4C97.1278 132.36 96.9548 133.314 96.6017 134.207C96.2485 135.1 95.7222 135.915 95.0529 136.604C94.3837 137.292 93.5847 137.842 92.7022 138.221C91.8196 138.599 90.8709 138.8 89.9106 138.81V138.8Z" fill="black"/>
<path d="M89.9109 138.81C93.8874 138.81 97.1109 135.497 97.1109 131.41C97.1109 127.323 93.8874 124.01 89.9109 124.01C85.9345 124.01 82.7109 127.323 82.7109 131.41C82.7109 135.497 85.9345 138.81 89.9109 138.81Z" fill="white"/>
<path d="M107.001 287.09C91.1009 287.09 79.1009 299.29 78.3009 316.59C77.5009 333.69 91.2009 346.09 107.001 346.09C122.801 346.09 135.701 332.89 135.701 316.59C135.701 300.29 122.911 287.09 107.001 287.09ZM100.301 339.89C88.1009 339.89 78.2009 331.19 78.3009 317.19C78.7009 305.69 88.2009 294.49 100.301 294.49C112.401 294.49 122.301 304.59 122.301 317.19C122.301 329.79 112.511 339.89 100.311 339.89H100.301Z" fill="white"/>
<path d="M100.311 294.59C88.1105 294.59 78.6105 305.79 78.3105 317.29C78.3105 331.29 88.2105 339.99 100.311 339.99C112.411 339.99 122.311 329.89 122.311 317.29C122.311 304.69 112.511 294.59 100.311 294.59ZM89.9106 332.39C88.4391 332.43 86.9892 332.03 85.7463 331.241C84.5033 330.453 83.5238 329.311 82.9329 327.963C82.342 326.615 82.1667 325.121 82.4292 323.673C82.6917 322.224 83.3803 320.887 84.4068 319.832C85.4333 318.777 86.7511 318.052 88.1917 317.75C89.6324 317.448 91.1304 317.582 92.4943 318.136C93.8581 318.69 95.0259 319.638 95.8482 320.859C96.6705 322.079 97.11 323.518 97.1105 324.99C97.1264 325.949 96.9525 326.902 96.5987 327.794C96.245 328.686 95.7184 329.499 95.0493 330.187C94.3802 330.875 93.5817 331.423 92.6998 331.801C91.8179 332.179 90.87 332.379 89.9106 332.39Z" fill="black"/>
<path d="M89.9109 332.39C93.8874 332.39 97.1109 329.077 97.1109 324.99C97.1109 320.903 93.8874 317.59 89.9109 317.59C85.9345 317.59 82.7109 320.903 82.7109 324.99C82.7109 329.077 85.9345 332.39 89.9109 332.39Z" fill="white"/>
<path d="M224.461 173.5C220.351 188.93 216.081 201.63 216.001 201.86C215.706 202.731 215.586 203.652 215.647 204.57C215.708 205.488 215.949 206.385 216.357 207.209C216.764 208.034 217.33 208.77 218.023 209.376C218.715 209.982 219.52 210.445 220.391 210.74C221.262 211.035 222.183 211.155 223.101 211.094C224.019 211.033 224.915 210.792 225.74 210.384C226.565 209.976 227.301 209.41 227.907 208.718C228.513 208.026 228.976 207.221 229.271 206.35C229.611 205.35 234.531 190.7 238.951 173.5H224.461ZM192.241 173.5C190.961 176.39 190.041 178.16 189.991 178.26C189.31 179.659 189.2 181.268 189.683 182.747C190.166 184.226 191.205 185.459 192.58 186.187C193.955 186.915 195.559 187.08 197.054 186.648C198.548 186.215 199.817 185.219 200.591 183.87C202.324 180.494 203.886 177.033 205.271 173.5H192.241Z" fill="#0C8C5E"/>
<path d="M231.9 135.15C231.9 135.36 231.84 135.56 231.82 135.77C231.02 146.7 227.82 161 224.46 173.5H239C242.12 161.36 245 147.93 245.81 137.08C247.59 124.99 240.2 102.27 235.31 88.9999C277.187 90.5966 318.951 94.3918 360.43 100.37C431.5 110.65 517.23 153.25 518.09 153.68C518.914 154.11 519.816 154.372 520.742 154.451C521.668 154.529 522.601 154.422 523.486 154.136C524.37 153.85 525.189 153.39 525.894 152.784C526.599 152.178 527.177 151.438 527.592 150.606C528.008 149.775 528.254 148.868 528.316 147.941C528.378 147.013 528.254 146.082 527.952 145.203C527.65 144.324 527.176 143.513 526.558 142.819C525.939 142.125 525.189 141.561 524.35 141.16C520.77 139.36 435.77 97.1599 362.44 86.5099C286.44 75.5099 225.65 74.7299 225.05 74.7299C223.893 74.7168 222.751 74.9907 221.726 75.5271C220.7 76.0636 219.824 76.8458 219.175 77.8038C218.526 78.7618 218.125 79.8658 218.007 81.0169C217.889 82.168 218.059 83.3303 218.5 84.3999C224.48 98.9999 233.46 125.62 231.9 135.15ZM200.57 136.58C201.74 149.9 195.69 165.74 192.24 173.5H205.24C209.08 163.86 213.68 149.03 212.49 135.5C210.806 117.364 204.694 99.9202 194.69 84.6999C194.23 84.0591 193.649 83.515 192.979 83.0989C192.309 82.6827 191.564 82.4025 190.786 82.2744C190.008 82.1462 189.212 82.1726 188.444 82.352C187.676 82.5314 186.951 82.8603 186.31 83.3199C185.669 83.7796 185.125 84.3609 184.709 85.0308C184.293 85.7007 184.013 86.446 183.884 87.2241C183.756 88.0023 183.783 88.7981 183.962 89.566C184.142 90.334 184.47 91.0591 184.93 91.6999C193.643 105.201 199.005 120.588 200.57 136.58Z" fill="#0C8C5E"/>
<path d="M224.59 366.89C220.48 382.32 216.21 395.02 216.13 395.25C215.552 397.004 215.69 398.916 216.514 400.568C217.339 402.221 218.783 403.48 220.533 404.073C222.282 404.665 224.195 404.542 225.854 403.731C227.513 402.919 228.784 401.485 229.39 399.74C229.74 398.74 234.66 384.09 239.07 366.89H224.59ZM192.37 366.89C191.08 369.78 190.16 371.55 190.11 371.65C189.366 373.057 189.212 374.702 189.68 376.223C190.149 377.744 191.203 379.016 192.61 379.76C194.017 380.504 195.662 380.659 197.183 380.19C198.704 379.721 199.976 378.667 200.72 377.26C202.453 373.884 204.015 370.423 205.4 366.89H192.37Z" fill="#18E299"/>
<path d="M232.001 328.54C231.967 328.745 231.944 328.952 231.931 329.16C231.121 340.09 227.931 354.39 224.571 366.89H239.051C242.171 354.75 245.051 341.32 245.871 330.47C247.651 318.38 240.261 295.66 235.361 282.39C277.241 283.986 319.009 287.782 360.491 293.76C431.551 304.04 517.291 346.64 518.141 347.07C518.963 347.481 519.858 347.727 520.775 347.793C521.692 347.859 522.613 347.743 523.486 347.453C524.358 347.163 525.165 346.704 525.86 346.102C526.555 345.5 527.124 344.767 527.536 343.945C527.948 343.123 528.193 342.228 528.259 341.311C528.325 340.393 528.209 339.472 527.919 338.6C527.629 337.728 527.17 336.921 526.568 336.226C525.966 335.531 525.233 334.961 524.411 334.55C520.831 332.75 435.831 290.55 362.491 279.9C316.966 273.267 271.09 269.33 225.101 268.11C223.943 268.098 222.801 268.373 221.776 268.91C220.751 269.448 219.875 270.231 219.227 271.191C218.579 272.15 218.179 273.255 218.063 274.406C217.947 275.558 218.118 276.72 218.561 277.79C224.611 292.35 233.591 319 232.001 328.54ZM200.691 330C201.871 343.32 195.811 359.16 192.371 366.92H205.371C209.201 357.28 213.811 342.45 212.621 328.92C210.937 310.784 204.825 293.34 194.821 278.12C193.893 276.826 192.488 275.953 190.917 275.694C189.345 275.435 187.735 275.812 186.441 276.74C185.147 277.668 184.274 279.072 184.015 280.644C183.757 282.216 184.133 283.826 185.061 285.12C193.769 298.623 199.127 314.009 200.691 330Z" fill="#18E299"/>
</svg>
