<svg width="700" height="320" viewBox="0 0 700 320" fill="none" xmlns="http://www.w3.org/2000/svg">
<g clip-path="url(#clip0_13_508)">
<mask id="mask0_13_508" style="mask-type:luminance" maskUnits="userSpaceOnUse" x="0" y="0" width="700" height="320">
<path d="M684 0H16C7.16344 0 0 7.16344 0 16V304C0 312.837 7.16344 320 16 320H684C692.837 320 700 312.837 700 304V16C700 7.16344 692.837 0 684 0Z" fill="white"/>
</mask>
<g mask="url(#mask0_13_508)">
<path d="M684 0H16C7.16344 0 0 7.16344 0 16V304C0 312.837 7.16344 320 16 320H684C692.837 320 700 312.837 700 304V16C700 7.16344 692.837 0 684 0Z" fill="url(#paint0_linear_13_508)"/>
<path d="M326.7 161.454V154.95H407.439V156.212C397.103 159.579 381.798 162.753 377.87 163.366C380.011 164.363 380.709 165.241 381.621 165.54C384.781 165.922 387.915 166.499 391.004 167.268C397.084 168.667 402.119 169.992 406.261 171.454C410.565 173.064 412.843 173.806 415.379 174.536C418.341 175.344 421.342 176.001 424.371 176.504C426.87 176.873 432.182 175.027 433.43 174.706C434.678 174.385 450.835 168.106 450.835 168.106C450.835 168.106 457.849 165.481 460.625 164.784C463.176 164.079 463.242 164.931 463.242 164.931C463.474 165.67 463.656 166.424 463.788 167.187C464.046 169.589 464.068 172.011 463.855 174.418C463.58 176.273 463.21 178.113 462.747 179.93C462.33 181.43 461.767 182.887 461.068 184.278C460.551 185.183 459.754 186.593 459.481 187.205C459.058 188.049 458.786 188.96 458.676 189.897C458.549 191.165 458.61 192.445 458.857 193.695C459.078 194.766 459.794 197.449 459.794 197.449L460.64 200.805L344.928 200.664V207.449H251.221C251.272 207.293 251.281 207.126 251.247 206.966C251.151 206.552 250.678 205.943 248.869 204.854C246.54 203.337 239.187 200.676 237.057 199.897C236.972 197.877 236.097 188.575 247.703 178.368C251.178 175.399 254.834 172.65 258.652 170.136C258.652 170.136 268.619 163.617 276.54 161.015" fill="#0C8C5E"/>
<path d="M460.624 200.805L344.912 200.665V207.449H251.224C250.703 208.978 243.671 211.68 238.857 212.617C241.441 216.172 246.322 219.417 251.22 222.215C255.941 224.792 260.841 227.026 265.882 228.9C267.728 229.539 273.228 231.691 276.506 231.949C281.067 232.275 285.649 232.188 290.194 231.691C292.597 231.457 294.984 231.087 297.345 230.584C297.345 230.584 297.802 232.392 300.667 236.364C302.738 239.115 305.277 241.927 307.813 243.592C310.833 245.501 311.837 246.508 318.378 247.701C323.243 248.628 328.214 248.859 333.144 248.387C336.466 248.081 339.685 247.974 342.546 247.18C342.683 243.511 342.221 240.122 340.745 237.129C344.717 237.287 346.924 237.402 352.469 237.295C363.174 237.092 374.865 234.888 384.448 233.057C392.366 231.547 405.319 227.918 411.513 225.859C415.072 224.674 423.532 221.798 424.319 221.798C425.592 221.798 427.504 222.097 430.166 222.883C434.12 224.053 437.158 225.098 443.824 227.494C450.491 229.89 456.423 231.979 460.033 232.474C462.702 232.843 463.031 232.474 463.215 231.137C463.522 229.447 461.167 225.6 460.196 222.581C458.979 219.53 458.735 216.178 459.498 212.983C459.749 212.044 460.052 211.119 460.406 210.214C461.049 208.372 461.33 206.423 461.233 204.474C461.159 203.233 460.955 202.003 460.624 200.805Z" fill="#0C8C5E"/>
<path d="M459.115 145.367C459.077 144.096 459.239 142.827 459.595 141.605C459.823 140.867 460.06 140.21 460.495 138.966C461.118 137.072 461.355 135.073 461.193 133.086C461.068 131.908 460.875 130.738 460.613 129.582L375.755 129.438V136.046H251.28C251.531 137.859 243.712 140.756 238.898 141.709C241.409 145.157 246.484 148.556 251.398 151.366C256.13 153.936 261.037 156.169 266.082 158.051C268.297 158.833 273.14 160.635 276.566 161.03L326.703 161.454V154.95H407.442V156.212C408.66 155.873 410.469 155.334 411.632 154.95C415.19 153.765 423.791 150.804 424.578 150.793C425.855 150.793 427.483 151.074 430.144 151.86C434.098 153.027 437.243 154.197 443.917 156.578C450.591 158.959 456.383 161.008 459.986 161.539C463.083 162.001 463.268 160.963 463.268 159.727C463.341 158.15 461.008 154.167 460.034 151.133C459.427 149.271 459.117 147.325 459.115 145.367Z" fill="#18E299"/>
<path d="M463.791 96.3302C463.857 97.5337 464.042 102.443 463.857 103.558C463.616 105.262 463.271 106.95 462.824 108.612C462.344 110.125 461.613 112.303 461.052 113.292C460.535 114.197 459.693 115.592 459.42 116.205C459.015 117.104 458.758 118.063 458.66 119.044C458.533 120.312 458.594 121.592 458.841 122.842C459.062 123.913 459.778 126.596 459.778 126.596L460.612 129.583L375.754 129.439V136.046H251.279C251.279 136.046 251.389 135.308 249.138 133.905C247.107 132.798 240.5 129.992 237.14 128.959C236.816 127.272 236.099 117.718 247.705 107.515C251.181 104.543 254.841 101.793 258.661 99.2797C258.661 99.2797 268.289 92.4469 278.632 89.3867C281.125 88.6832 283.667 88.1649 286.236 87.8363C293.571 87.2382 305.329 86.9503 306.48 86.9909C308.787 83.9203 311.298 81.0086 313.996 78.2754C318.378 73.9602 320.862 72.2953 323.483 72C327.101 72.2141 346.466 76.7398 351.933 78.3677C355.071 79.2537 361.353 80.9517 366.33 83.0374C371.461 85.0086 372.708 86.6845 372.708 86.6845C373.669 88.1367 374.712 89.533 375.831 90.8669C377.042 92.0777 380.519 94.1671 381.487 94.5584C382.945 94.9275 385.411 94.9497 390.992 96.297C396.824 97.685 402.066 99.169 406.238 100.468C410.557 101.908 412.808 102.905 415.392 103.569C417.976 104.234 422.111 105.23 424.399 105.563C426.688 105.895 431.72 104.086 432.967 103.765C434.215 103.444 450.838 97.2494 450.838 97.2494C450.838 97.2494 459.808 94.0416 460.62 93.7795C463.34 92.8935 463.791 92.8308 463.791 96.3302Z" fill="#18E299"/>
<path d="M276.497 106.519C270.628 106.519 266.198 111.022 265.903 117.408C265.608 123.721 270.665 128.298 276.497 128.298C282.33 128.298 287.092 123.425 287.092 117.408C287.092 111.391 282.37 106.519 276.497 106.519ZM274.024 126.009C269.521 126.009 265.866 122.798 265.903 117.63C266.051 113.385 269.557 109.25 274.024 109.25C278.491 109.25 282.145 112.979 282.145 117.63C282.145 122.281 278.531 126.009 274.028 126.009H274.024Z" fill="white"/>
<path d="M274.029 109.283C269.526 109.283 266.019 113.418 265.908 117.663C265.908 122.831 269.563 126.042 274.029 126.042C278.496 126.042 282.151 122.314 282.151 117.663C282.151 113.012 278.533 109.283 274.029 109.283ZM270.19 123.237C269.647 123.252 269.112 123.104 268.653 122.813C268.194 122.522 267.833 122.1 267.615 121.603C267.396 121.105 267.332 120.554 267.429 120.019C267.525 119.484 267.78 118.991 268.159 118.601C268.538 118.212 269.024 117.944 269.556 117.833C270.088 117.721 270.641 117.771 271.144 117.975C271.647 118.18 272.079 118.529 272.382 118.98C272.686 119.431 272.848 119.962 272.848 120.505C272.854 120.86 272.791 121.212 272.66 121.542C272.53 121.871 272.336 122.172 272.089 122.426C271.841 122.68 271.547 122.883 271.221 123.023C270.895 123.163 270.545 123.237 270.19 123.241V123.237Z" fill="black"/>
<path d="M270.189 123.241C271.657 123.241 272.847 122.018 272.847 120.509C272.847 119 271.657 117.777 270.189 117.777C268.721 117.777 267.531 119 267.531 120.509C267.531 122.018 268.721 123.241 270.189 123.241Z" fill="white"/>
<path d="M276.497 177.978C270.628 177.978 266.198 182.481 265.903 188.867C265.608 195.18 270.665 199.757 276.497 199.757C282.33 199.757 287.092 194.884 287.092 188.867C287.092 182.85 282.37 177.978 276.497 177.978ZM274.024 197.468C269.521 197.468 265.866 194.257 265.903 189.089C266.051 184.844 269.557 180.709 274.024 180.709C278.491 180.709 282.145 184.438 282.145 189.089C282.145 193.74 278.531 197.468 274.028 197.468H274.024Z" fill="white"/>
<path d="M274.029 180.746C269.526 180.746 266.019 184.88 265.908 189.125C265.908 194.293 269.563 197.505 274.029 197.505C278.496 197.505 282.151 193.776 282.151 189.125C282.151 184.474 278.533 180.746 274.029 180.746ZM270.19 194.699C269.647 194.714 269.112 194.566 268.653 194.275C268.194 193.984 267.833 193.563 267.615 193.065C267.396 192.567 267.332 192.016 267.429 191.481C267.525 190.947 267.78 190.453 268.159 190.064C268.538 189.674 269.024 189.407 269.556 189.295C270.088 189.184 270.641 189.233 271.144 189.438C271.647 189.642 272.079 189.992 272.382 190.443C272.686 190.893 272.848 191.424 272.848 191.968C272.854 192.322 272.79 192.674 272.659 193.003C272.529 193.332 272.334 193.632 272.087 193.886C271.84 194.14 271.545 194.342 271.22 194.482C270.894 194.622 270.544 194.695 270.19 194.699Z" fill="black"/>
<path d="M270.189 194.7C271.657 194.7 272.847 193.477 272.847 191.968C272.847 190.459 271.657 189.236 270.189 189.236C268.721 189.236 267.531 190.459 267.531 191.968C267.531 193.477 268.721 194.7 270.189 194.7Z" fill="white"/>
<path d="M319.858 136.046C318.34 141.742 316.764 146.43 316.735 146.515C316.626 146.837 316.581 147.177 316.604 147.516C316.626 147.854 316.715 148.186 316.866 148.49C317.016 148.794 317.225 149.066 317.481 149.29C317.736 149.513 318.033 149.684 318.355 149.793C318.677 149.902 319.017 149.947 319.356 149.924C319.694 149.901 320.025 149.812 320.33 149.662C320.634 149.511 320.906 149.302 321.13 149.047C321.353 148.791 321.524 148.494 321.633 148.173C321.759 147.804 323.575 142.396 325.206 136.046H319.858ZM307.964 136.046C307.491 137.113 307.152 137.767 307.133 137.804C306.882 138.32 306.841 138.914 307.02 139.46C307.198 140.006 307.581 140.461 308.089 140.73C308.597 140.998 309.189 141.059 309.74 140.9C310.292 140.74 310.76 140.373 311.046 139.874C311.686 138.628 312.262 137.351 312.774 136.046H307.964Z" fill="#0C8C5E"/>
<path d="M322.608 121.89C322.608 121.968 322.585 122.042 322.578 122.119C322.283 126.154 321.102 131.433 319.861 136.047H325.229C326.38 131.565 327.443 126.608 327.742 122.603C328.399 118.14 325.671 109.753 323.866 104.854C339.325 105.444 354.742 106.845 370.054 109.051C396.289 112.846 427.935 128.572 428.253 128.73C428.557 128.889 428.89 128.986 429.232 129.015C429.574 129.044 429.918 129.004 430.245 128.899C430.571 128.793 430.873 128.623 431.134 128.4C431.394 128.176 431.607 127.903 431.761 127.596C431.914 127.289 432.005 126.954 432.028 126.612C432.05 126.269 432.005 125.926 431.893 125.601C431.782 125.277 431.607 124.978 431.379 124.721C431.15 124.465 430.873 124.257 430.564 124.109C429.242 123.444 397.865 107.866 370.796 103.935C342.741 99.8745 320.3 99.5866 320.079 99.5866C319.652 99.5817 319.23 99.6829 318.852 99.8809C318.473 100.079 318.15 100.368 317.91 100.721C317.671 101.075 317.523 101.482 317.479 101.907C317.436 102.332 317.498 102.761 317.661 103.156C319.869 108.546 323.183 118.372 322.608 121.89ZM311.042 122.418C311.474 127.335 309.241 133.182 307.967 136.047H312.766C314.184 132.488 315.882 127.014 315.443 122.019C314.821 115.325 312.565 108.885 308.872 103.267C308.702 103.03 308.488 102.83 308.24 102.676C307.993 102.522 307.718 102.419 307.431 102.372C307.143 102.324 306.85 102.334 306.566 102.4C306.283 102.466 306.015 102.588 305.778 102.758C305.542 102.927 305.341 103.142 305.187 103.389C305.034 103.636 304.93 103.911 304.883 104.199C304.836 104.486 304.845 104.78 304.912 105.063C304.978 105.347 305.099 105.614 305.269 105.851C308.485 110.835 310.465 116.515 311.042 122.418Z" fill="#0C8C5E"/>
<path d="M319.905 207.435C318.388 213.131 316.811 217.819 316.782 217.904C316.568 218.551 316.619 219.257 316.924 219.867C317.228 220.477 317.761 220.942 318.407 221.161C319.053 221.379 319.759 221.334 320.371 221.034C320.984 220.735 321.453 220.205 321.677 219.561C321.806 219.192 323.622 213.784 325.25 207.435H319.905ZM308.011 207.435C307.535 208.502 307.195 209.155 307.177 209.192C306.902 209.712 306.845 210.319 307.018 210.88C307.191 211.442 307.58 211.911 308.1 212.186C308.619 212.461 309.226 212.518 309.788 212.345C310.349 212.171 310.819 211.782 311.093 211.263C311.733 210.017 312.31 208.739 312.821 207.435H308.011Z" fill="#18E299"/>
<path d="M322.641 193.278C322.629 193.354 322.62 193.43 322.616 193.507C322.317 197.542 321.139 202.821 319.899 207.435H325.244C326.396 202.953 327.459 197.996 327.761 193.991C328.419 189.528 325.691 181.141 323.882 176.242C339.342 176.832 354.76 178.233 370.073 180.439C396.304 184.234 427.954 199.96 428.268 200.118C428.572 200.27 428.902 200.361 429.241 200.385C429.579 200.41 429.919 200.367 430.241 200.26C430.563 200.153 430.861 199.983 431.118 199.761C431.374 199.539 431.584 199.268 431.736 198.965C431.888 198.661 431.979 198.331 432.003 197.992C432.028 197.654 431.985 197.314 431.878 196.992C431.771 196.67 431.601 196.372 431.379 196.116C431.157 195.859 430.886 195.649 430.583 195.497C429.261 194.832 397.884 179.254 370.811 175.323C354.006 172.875 337.071 171.421 320.094 170.971C319.667 170.966 319.245 171.068 318.867 171.266C318.489 171.465 318.165 171.754 317.926 172.108C317.687 172.462 317.539 172.87 317.496 173.295C317.453 173.72 317.517 174.149 317.68 174.544C319.913 179.919 323.228 189.757 322.641 193.278ZM311.084 193.817C311.519 198.734 309.282 204.581 308.012 207.446H312.811C314.225 203.887 315.927 198.413 315.487 193.418C314.866 186.724 312.61 180.284 308.917 174.666C308.574 174.188 308.056 173.866 307.475 173.771C306.895 173.675 306.301 173.814 305.823 174.157C305.346 174.499 305.023 175.018 304.928 175.598C304.832 176.178 304.971 176.772 305.314 177.25C308.528 182.234 310.506 187.914 311.084 193.817Z" fill="#18E299"/>
<g opacity="0.8" filter="url(#filter0_f_13_508)">
<path d="M660 100C748.366 100 820 28.3656 820 -60C820 -148.366 748.366 -220 660 -220C571.634 -220 500 -148.366 500 -60C500 28.3656 571.634 100 660 100Z" fill="#18E244" fill-opacity="0.4"/>
</g>
<g opacity="0.8" filter="url(#filter1_f_13_508)">
<path d="M20 373C108.366 373 180 301.366 180 213C180 124.634 108.366 53 20 53C-68.3656 53 -140 124.634 -140 213C-140 301.366 -68.3656 373 20 373Z" fill="#18CAE2" fill-opacity="0.33"/>
</g>
<g opacity="0.8" filter="url(#filter2_f_13_508)">
</g>
<g opacity="0.8" filter="url(#filter3_f_13_508)">
<path d="M20 573C108.366 573 180 501.366 180 413C180 324.634 108.366 253 20 253C-68.3656 253 -140 324.634 -140 413C-140 501.366 -68.3656 573 20 573Z" fill="#4018E2" fill-opacity="0.22"/>
</g>
<path opacity="0.2" d="M0 50H700" stroke="url(#paint1_radial_13_508)" stroke-dasharray="4 4"/>
<path opacity="0.1" d="M0 82H700" stroke="url(#paint2_radial_13_508)" stroke-dasharray="4 4"/>
<path opacity="0.2" d="M239 0V320" stroke="url(#paint3_radial_13_508)" stroke-dasharray="4 4"/>
<path opacity="0.1" d="M271 0V320" stroke="url(#paint4_radial_13_508)" stroke-dasharray="4 4"/>
<path opacity="0.2" d="M461 0V320" stroke="url(#paint5_radial_13_508)" stroke-dasharray="4 4"/>
<path opacity="0.1" d="M429 0V320" stroke="url(#paint6_radial_13_508)" stroke-dasharray="4 4"/>
<path opacity="0.2" d="M0 271H700" stroke="url(#paint7_radial_13_508)" stroke-dasharray="4 4"/>
<path opacity="0.1" d="M0 239H700" stroke="url(#paint8_radial_13_508)" stroke-dasharray="4 4"/>
<g style="mix-blend-mode:overlay" opacity="0.1">
<path d="M0 160H700" stroke="url(#paint9_linear_13_508)"/>
</g>
<g style="mix-blend-mode:overlay" opacity="0.2">
<path d="M511 -1L189 321" stroke="url(#paint10_linear_13_508)"/>
</g>
<g style="mix-blend-mode:overlay" opacity="0.2">
<path d="M511 321L189 -1" stroke="url(#paint11_linear_13_508)"/>
</g>
<g style="mix-blend-mode:overlay" opacity="0.1">
<path d="M350 271C411.304 271 461 221.304 461 160C461 98.6964 411.304 49 350 49C288.696 49 239 98.6964 239 160C239 221.304 288.696 271 350 271Z" stroke="white"/>
</g>
<g style="mix-blend-mode:overlay" opacity="0.1">
<path d="M350 239C393.63 239 429 203.63 429 160C429 116.37 393.63 81 350 81C306.37 81 271 116.37 271 160C271 203.63 306.37 239 350 239Z" stroke="white"/>
</g>
</g>
</g>
<defs>
<filter id="filter0_f_13_508" x="260" y="-460" width="800" height="800" filterUnits="userSpaceOnUse" color-interpolation-filters="sRGB">
<feFlood flood-opacity="0" result="BackgroundImageFix"/>
<feBlend mode="normal" in="SourceGraphic" in2="BackgroundImageFix" result="shape"/>
<feGaussianBlur stdDeviation="120" result="effect1_foregroundBlur_13_508"/>
</filter>
<filter id="filter1_f_13_508" x="-380" y="-187" width="800" height="800" filterUnits="userSpaceOnUse" color-interpolation-filters="sRGB">
<feFlood flood-opacity="0" result="BackgroundImageFix"/>
<feBlend mode="normal" in="SourceGraphic" in2="BackgroundImageFix" result="shape"/>
<feGaussianBlur stdDeviation="120" result="effect1_foregroundBlur_13_508"/>
</filter>
<filter id="filter2_f_13_508" x="260" y="80" width="800" height="800" filterUnits="userSpaceOnUse" color-interpolation-filters="sRGB">
<feFlood flood-opacity="0" result="BackgroundImageFix"/>
<feBlend mode="normal" in="SourceGraphic" in2="BackgroundImageFix" result="shape"/>
<feGaussianBlur stdDeviation="120" result="effect1_foregroundBlur_13_508"/>
</filter>
<filter id="filter3_f_13_508" x="-380" y="13" width="800" height="800" filterUnits="userSpaceOnUse" color-interpolation-filters="sRGB">
<feFlood flood-opacity="0" result="BackgroundImageFix"/>
<feBlend mode="normal" in="SourceGraphic" in2="BackgroundImageFix" result="shape"/>
<feGaussianBlur stdDeviation="120" result="effect1_foregroundBlur_13_508"/>
</filter>
<linearGradient id="paint0_linear_13_508" x1="1.27814e-05" y1="320" x2="710.784" y2="26.0793" gradientUnits="userSpaceOnUse">
<stop stop-color="#18E299" stop-opacity="0.09"/>
<stop offset="0.729167" stop-color="#0D9373" stop-opacity="0.08"/>
</linearGradient>
<radialGradient id="paint1_radial_13_508" cx="0" cy="0" r="1" gradientUnits="userSpaceOnUse" gradientTransform="translate(-nan -nan) rotate(-nan) scale(-nan -nan)">
<stop offset="0.348958" stop-color="#84FFD3"/>
<stop offset="0.880208" stop-color="#18E299" stop-opacity="0"/>
</radialGradient>
<radialGradient id="paint2_radial_13_508" cx="0" cy="0" r="1" gradientUnits="userSpaceOnUse" gradientTransform="translate(-nan -nan) rotate(-nan) scale(-nan -nan)">
<stop offset="0.348958" stop-color="#84FFD3"/>
<stop offset="0.880208" stop-color="#18E299" stop-opacity="0"/>
</radialGradient>
<radialGradient id="paint3_radial_13_508" cx="0" cy="0" r="1" gradientUnits="userSpaceOnUse" gradientTransform="translate(-nan -nan) rotate(-nan) scale(-nan -nan)">
<stop offset="0.348958" stop-color="#84FFD3"/>
<stop offset="0.880208" stop-color="#18E299" stop-opacity="0"/>
</radialGradient>
<radialGradient id="paint4_radial_13_508" cx="0" cy="0" r="1" gradientUnits="userSpaceOnUse" gradientTransform="translate(-nan -nan) rotate(-nan) scale(-nan -nan)">
<stop offset="0.348958" stop-color="#84FFD3"/>
<stop offset="0.880208" stop-color="#18E299" stop-opacity="0"/>
</radialGradient>
<radialGradient id="paint5_radial_13_508" cx="0" cy="0" r="1" gradientUnits="userSpaceOnUse" gradientTransform="translate(-nan -nan) rotate(-nan) scale(-nan -nan)">
<stop offset="0.348958" stop-color="#84FFD3"/>
<stop offset="0.880208" stop-color="#18E299" stop-opacity="0"/>
</radialGradient>
<radialGradient id="paint6_radial_13_508" cx="0" cy="0" r="1" gradientUnits="userSpaceOnUse" gradientTransform="translate(-nan -nan) rotate(-nan) scale(-nan -nan)">
<stop offset="0.348958" stop-color="#84FFD3"/>
<stop offset="0.880208" stop-color="#18E299" stop-opacity="0"/>
</radialGradient>
<radialGradient id="paint7_radial_13_508" cx="0" cy="0" r="1" gradientUnits="userSpaceOnUse" gradientTransform="translate(-nan -nan) rotate(-nan) scale(-nan -nan)">
<stop offset="0.348958" stop-color="#84FFD3"/>
<stop offset="0.880208" stop-color="#18E299" stop-opacity="0"/>
</radialGradient>
<radialGradient id="paint8_radial_13_508" cx="0" cy="0" r="1" gradientUnits="userSpaceOnUse" gradientTransform="translate(-nan -nan) rotate(-nan) scale(-nan -nan)">
<stop offset="0.348958" stop-color="#84FFD3"/>
<stop offset="0.880208" stop-color="#18E299" stop-opacity="0"/>
</radialGradient>
<linearGradient id="paint9_linear_13_508" x1="-nan" y1="-nan" x2="-nan" y2="-nan" gradientUnits="userSpaceOnUse">
<stop stop-color="white" stop-opacity="0.1"/>
<stop offset="0.5" stop-color="white"/>
<stop offset="1" stop-color="white" stop-opacity="0.1"/>
</linearGradient>
<linearGradient id="paint10_linear_13_508" x1="511" y1="-1" x2="189" y2="321" gradientUnits="userSpaceOnUse">
<stop stop-color="white" stop-opacity="0.1"/>
<stop offset="0.5" stop-color="white"/>
<stop offset="1" stop-color="white" stop-opacity="0.1"/>
</linearGradient>
<linearGradient id="paint11_linear_13_508" x1="511" y1="321" x2="189" y2="-1" gradientUnits="userSpaceOnUse">
<stop stop-color="white" stop-opacity="0.1"/>
<stop offset="0.5" stop-color="white"/>
<stop offset="1" stop-color="white" stop-opacity="0.1"/>
</linearGradient>
<clipPath id="clip0_13_508">
<rect width="700" height="320" fill="white"/>
</clipPath>
</defs>
</svg>
